<svg xmlns="http://www.w3.org/2000/svg" viewBox="0 0 24 24">
  <circle cx="12" cy="12" r="11" fill="#25D366" />
  <path fill="#ffffff" d="M17.6 6.4C16.2 5 14.3 4.2 12.3 4.2 8.1 4.2 4.7 7.6 4.7 11.8 4.7 13.2 5.1 14.5 5.7 15.7L4.6 19.5 8.5 18.4C9.6 19 10.9 19.3 12.3 19.3 16.5 19.3 19.9 15.9 19.9 11.7 19.8 9.7 19 7.8 17.6 6.4ZM12.3 18 12.3 18C11.1 18 9.9 17.7 8.8 17.1L8.6 17 6.7 17.6 7.3 15.8 7.2 15.6C6.5 14.5 6.2 13.2 6.2 11.8 6.2 8.4 9 5.6 12.4 5.6 14.1 5.6 15.7 6.3 16.8 7.5 18 8.6 18.6 10.2 18.6 11.9 18.5 15.3 15.7 18 12.3 18ZM15.5 13.3C15.3 13.2 14.2 12.7 14 12.6 13.8 12.5 13.7 12.5 13.5 12.7 13.3 12.9 13 13.3 12.8 13.5 12.7 13.7 12.6 13.7 12.4 13.6 11.4 13.1 10.7 12.7 10 11.8 9.8 11.5 10.1 11.5 10.4 10.9 10.5 10.7 10.4 10.6 10.4 10.4 10.3 10.2 10 9.6 9.8 9.2 9.6 8.7 9.4 8.8 9.3 8.8 9.2 8.8 9 8.8 8.8 8.8 8.6 8.8 8.3 8.9 8.2 9.1 7.8 9.7 7.5 10.4 7.5 11.1 7.5 12 8 12.9 8.1 13.1 9.1 14.7 10.6 15.5 12.4 15.9 12.7 16 13.3 16.1 13.8 16.1 14.3 16.1 14.9 15.5 15 15.1 15.1 14.7 15.1 14.4 15 14.2 14.9 14 15.1 13.7 15.7 13.5 15.5 13.3Z"/>
</svg> 